<svg width="1200" height="720" viewBox="0 0 1200 720" fill="none" xmlns="http://www.w3.org/2000/svg">
  <defs>
    <linearGradient id="bg" x1="0" y1="0" x2="1200" y2="720" gradientUnits="userSpaceOnUse">
      <stop stop-color="#EFF6FF"/>
      <stop offset="1" stop-color="#FFF7ED"/>
    </linearGradient>
  </defs>
  <rect width="1200" height="720" rx="28" fill="url(#bg)"/>
  <text x="70" y="92" fill="#0F172A" font-size="46" font-weight="800" font-family="Arial, Noto Sans Thai, sans-serif">หากรถสตาร์ทไม่ติดในย่านนี้ ควรทำอย่างไร?</text>
  <text x="70" y="136" fill="#64748B" font-size="22" font-family="Arial, Noto Sans Thai, sans-serif">ภาพประกอบแนวให้ความรู้สำหรับโซนบริการบางนา • เทพารักษ์ • แพรกษา • แบริ่ง</text>

  <rect x="78" y="194" width="1044" height="446" rx="30" fill="#FFFFFF" stroke="#BFDBFE" stroke-width="2"/>
  <path d="M140 580C284 450 360 446 466 382C540 336 616 336 692 288C784 230 896 236 1060 164" stroke="#60A5FA" stroke-width="18" stroke-linecap="round" stroke-dasharray="2 34"/>
  <path d="M130 288H1070" stroke="#CBD5E1" stroke-width="12" stroke-linecap="round"/>
  <path d="M620 220V616" stroke="#CBD5E1" stroke-width="12" stroke-linecap="round"/>

  <g>
    <circle cx="276" cy="300" r="22" fill="#F97316"/>
    <text x="314" y="308" fill="#0F172A" font-size="28" font-weight="700" font-family="Arial, Noto Sans Thai, sans-serif">เซ็นทรัลบางนา</text>
  </g>
  <g>
    <circle cx="722" cy="254" r="22" fill="#F97316"/>
    <text x="760" y="262" fill="#0F172A" font-size="28" font-weight="700" font-family="Arial, Noto Sans Thai, sans-serif">แยกเทพารักษ์</text>
  </g>
  <g>
    <circle cx="860" cy="436" r="22" fill="#F97316"/>
    <text x="898" y="444" fill="#0F172A" font-size="28" font-weight="700" font-family="Arial, Noto Sans Thai, sans-serif">ตลาดหนามแดง</text>
  </g>
  <g>
    <circle cx="410" cy="514" r="22" fill="#F97316"/>
    <text x="448" y="522" fill="#0F172A" font-size="28" font-weight="700" font-family="Arial, Noto Sans Thai, sans-serif">BTS แบริ่ง / ลาซาล</text>
  </g>
  <g>
    <circle cx="950" cy="560" r="22" fill="#F97316"/>
    <text x="988" y="568" fill="#0F172A" font-size="28" font-weight="700" font-family="Arial, Noto Sans Thai, sans-serif">แพรกษา / สมุทรปราการ</text>
  </g>

  <rect x="132" y="392" width="356" height="168" rx="26" fill="#FFF7ED" stroke="#FDBA74"/>
  <text x="164" y="444" fill="#0F172A" font-size="30" font-weight="800" font-family="Arial, Noto Sans Thai, sans-serif">สิ่งที่ควรทำทันที</text>
  <text x="164" y="490" fill="#475569" font-size="22" font-family="Arial, Noto Sans Thai, sans-serif">1. ตั้งสติ อย่าฝืนสตาร์ทยาว</text>
  <text x="164" y="524" fill="#475569" font-size="22" font-family="Arial, Noto Sans Thai, sans-serif">2. เปิดไฟฉุกเฉินถ้าจอดริมทาง</text>
  <text x="164" y="558" fill="#475569" font-size="22" font-family="Arial, Noto Sans Thai, sans-serif">3. เรียกช่างตรวจแบตถึงที่</text>
</svg>
