<svg width="1200" height="720" viewBox="0 0 1200 720" fill="none" xmlns="http://www.w3.org/2000/svg">
  <defs>
    <linearGradient id="bg" x1="0" y1="0" x2="1200" y2="720" gradientUnits="userSpaceOnUse">
      <stop stop-color="#FFF7ED"/>
      <stop offset="1" stop-color="#FFFBEB"/>
    </linearGradient>
  </defs>
  <rect width="1200" height="720" rx="28" fill="url(#bg)"/>
  <text x="70" y="92" fill="#0F172A" font-size="46" font-weight="800" font-family="Arial, Noto Sans Thai, sans-serif">3 สัญญาณที่บอกว่าแบตเตอรี่กำลังเสื่อม</text>
  <text x="70" y="136" fill="#64748B" font-size="22" font-family="Arial, Noto Sans Thai, sans-serif">ภาพสรุปเพื่อให้เข้าใจง่าย เหมาะกับบทความให้ความรู้</text>

  <rect x="70" y="188" width="320" height="430" rx="28" fill="#FFFFFF" stroke="#FDBA74" stroke-width="2"/>
  <circle cx="230" cy="272" r="58" fill="#FED7AA"/>
  <rect x="210" y="236" width="12" height="74" rx="6" fill="#EA580C"/>
  <rect x="238" y="236" width="12" height="74" rx="6" fill="#EA580C"/>
  <path d="M190 340H270" stroke="#EA580C" stroke-width="10" stroke-linecap="round"/>
  <text x="120" y="418" fill="#0F172A" font-size="30" font-weight="800" font-family="Arial, Noto Sans Thai, sans-serif">สตาร์ทเครื่องช้า</text>
  <text x="110" y="468" fill="#475569" font-size="22" font-family="Arial, Noto Sans Thai, sans-serif">บิดกุญแจแล้วเครื่องหมุนอืด</text>
  <text x="110" y="504" fill="#475569" font-size="22" font-family="Arial, Noto Sans Thai, sans-serif">หรือกว่าจะติดต้องรอนาน</text>

  <rect x="440" y="188" width="320" height="430" rx="28" fill="#FFFFFF" stroke="#FDBA74" stroke-width="2"/>
  <circle cx="600" cy="272" r="58" fill="#FED7AA"/>
  <circle cx="600" cy="272" r="24" fill="#EA580C" fill-opacity="0.85"/>
  <circle cx="600" cy="272" r="40" stroke="#EA580C" stroke-width="10" stroke-dasharray="12 14"/>
  <text x="548" y="418" fill="#0F172A" font-size="30" font-weight="800" font-family="Arial, Noto Sans Thai, sans-serif">ไฟหน้าอ่อน</text>
  <text x="504" y="468" fill="#475569" font-size="22" font-family="Arial, Noto Sans Thai, sans-serif">ไฟหน้าหรี่ลงหรือแอร์ดรอป</text>
  <text x="534" y="504" fill="#475569" font-size="22" font-family="Arial, Noto Sans Thai, sans-serif">ระบบไฟฟ้าทำงานไม่เต็มที่</text>

  <rect x="810" y="188" width="320" height="430" rx="28" fill="#FFFFFF" stroke="#FDBA74" stroke-width="2"/>
  <circle cx="970" cy="272" r="58" fill="#FED7AA"/>
  <rect x="944" y="242" width="52" height="62" rx="12" fill="#EA580C"/>
  <rect x="956" y="228" width="10" height="16" rx="4" fill="#EA580C"/>
  <rect x="974" y="228" width="10" height="16" rx="4" fill="#EA580C"/>
  <path d="M970 254V284" stroke="#FFFFFF" stroke-width="8" stroke-linecap="round"/>
  <circle cx="970" cy="296" r="4" fill="#FFFFFF"/>
  <text x="902" y="418" fill="#0F172A" font-size="30" font-weight="800" font-family="Arial, Noto Sans Thai, sans-serif">ไฟเตือนแบตขึ้น</text>
  <text x="874" y="468" fill="#475569" font-size="22" font-family="Arial, Noto Sans Thai, sans-serif">ขึ้นโชว์บนหน้าปัดระหว่างขับ</text>
  <text x="900" y="504" fill="#475569" font-size="22" font-family="Arial, Noto Sans Thai, sans-serif">ควรรีบตรวจเช็กทันที</text>
</svg>
