<svg width="1200" height="630" viewBox="0 0 1200 630" fill="none" xmlns="http://www.w3.org/2000/svg">
  <defs>
    <linearGradient id="bg" x1="0" y1="0" x2="1200" y2="630" gradientUnits="userSpaceOnUse">
      <stop stop-color="#FFF7ED"/>
      <stop offset="0.45" stop-color="#FFEDD5"/>
      <stop offset="1" stop-color="#E0F2FE"/>
    </linearGradient>
    <linearGradient id="panel" x1="0" y1="0" x2="1" y2="1">
      <stop stop-color="#FFFFFF" stop-opacity="0.96"/>
      <stop offset="1" stop-color="#FFF7ED" stop-opacity="0.94"/>
    </linearGradient>
    <linearGradient id="battery" x1="0" y1="0" x2="0" y2="1">
      <stop stop-color="#F97316"/>
      <stop offset="1" stop-color="#EA580C"/>
    </linearGradient>
    <filter id="shadow" x="-20%" y="-20%" width="140%" height="140%">
      <feDropShadow dx="0" dy="18" stdDeviation="18" flood-color="#0F172A" flood-opacity="0.15"/>
    </filter>
  </defs>

  <rect width="1200" height="630" rx="32" fill="url(#bg)"/>
  <circle cx="1080" cy="88" r="120" fill="#FDBA74" fill-opacity="0.25"/>
  <circle cx="102" cy="560" r="160" fill="#38BDF8" fill-opacity="0.14"/>

  <rect x="54" y="54" width="1092" height="522" rx="30" fill="url(#panel)" filter="url(#shadow)"/>

  <g transform="translate(84 114)">
    <text x="0" y="0" fill="#F97316" font-size="26" font-weight="700" font-family="Arial, Noto Sans Thai, sans-serif">FIRSTCARCENTER • บทความให้ความรู้รถยนต์</text>
    <text x="0" y="76" fill="#0F172A" font-size="54" font-weight="800" font-family="Arial, Noto Sans Thai, sans-serif">อาการแบตเตอรี่เสื่อม</text>
    <text x="0" y="138" fill="#334155" font-size="30" font-weight="700" font-family="Arial, Noto Sans Thai, sans-serif">เช็กก่อนรถสตาร์ทไม่ติด • อัปเดต 2026</text>
    <text x="0" y="198" fill="#475569" font-size="24" font-weight="500" font-family="Arial, Noto Sans Thai, sans-serif">สัญญาณเตือน • วิธีสังเกต • แนวทางแก้ไขเบื้องต้น</text>

    <g transform="translate(0 252)">
      <rect x="0" y="0" width="318" height="118" rx="22" fill="#FFFFFF" stroke="#FDBA74"/>
      <circle cx="42" cy="40" r="18" fill="#F97316" fill-opacity="0.16"/>
      <text x="74" y="48" fill="#0F172A" font-size="22" font-weight="700" font-family="Arial, Noto Sans Thai, sans-serif">สตาร์ทช้า</text>
      <text x="28" y="86" fill="#64748B" font-size="18" font-family="Arial, Noto Sans Thai, sans-serif">เครื่องหมุนอืด ลากยาวกว่าจะติด</text>

      <rect x="346" y="0" width="318" height="118" rx="22" fill="#FFFFFF" stroke="#FDBA74"/>
      <circle cx="388" cy="40" r="18" fill="#F97316" fill-opacity="0.16"/>
      <text x="420" y="48" fill="#0F172A" font-size="22" font-weight="700" font-family="Arial, Noto Sans Thai, sans-serif">ไฟอ่อน</text>
      <text x="374" y="86" fill="#64748B" font-size="18" font-family="Arial, Noto Sans Thai, sans-serif">ไฟหน้าและอุปกรณ์ไฟฟ้าดรอป</text>

      <rect x="692" y="0" width="318" height="118" rx="22" fill="#FFFFFF" stroke="#FDBA74"/>
      <circle cx="734" cy="40" r="18" fill="#F97316" fill-opacity="0.16"/>
      <text x="766" y="48" fill="#0F172A" font-size="22" font-weight="700" font-family="Arial, Noto Sans Thai, sans-serif">ไฟเตือนแบต</text>
      <text x="720" y="86" fill="#64748B" font-size="18" font-family="Arial, Noto Sans Thai, sans-serif">ขึ้นโชว์บนหน้าปัดขณะขับรถ</text>
    </g>
  </g>

  <g transform="translate(884 168)">
    <rect x="0" y="40" width="172" height="242" rx="24" fill="#0F172A"/>
    <rect x="12" y="52" width="148" height="218" rx="18" fill="#FFF7ED"/>
    <rect x="54" y="0" width="24" height="40" rx="8" fill="#0F172A"/>
    <rect x="94" y="0" width="24" height="40" rx="8" fill="#0F172A"/>
    <rect x="30" y="176" width="112" height="74" rx="16" fill="url(#battery)"/>
    <rect x="30" y="92" width="112" height="68" rx="16" fill="#FDBA74"/>
    <rect x="56" y="122" width="60" height="10" rx="5" fill="#FFFFFF" fill-opacity="0.9"/>
    <rect x="81" y="97" width="10" height="60" rx="5" fill="#FFFFFF" fill-opacity="0.9"/>
    <circle cx="148" cy="228" r="30" fill="#F97316"/>
    <text x="137" y="239" fill="#FFFFFF" font-size="34" font-weight="800" font-family="Arial, sans-serif">!</text>
  </g>
</svg>
