<svg width="1200" height="630" viewBox="0 0 1200 630" xmlns="http://www.w3.org/2000/svg">
  <defs>
    <linearGradient id="bg-grad" x1="0%" y1="0%" x2="100%" y2="100%">
      <stop offset="0%" stop-color="#050914"/>
      <stop offset="100%" stop-color="#12182B"/>
    </linearGradient>
    <radialGradient id="glow-orange" cx="50%" cy="50%" r="50%">
      <stop offset="0%" stop-color="#FF6B00" stop-opacity="0.3"/>
      <stop offset="100%" stop-color="#FF6B00" stop-opacity="0"/>
    </radialGradient>
    <radialGradient id="glow-red" cx="50%" cy="50%" r="50%">
      <stop offset="0%" stop-color="#EF4444" stop-opacity="0.2"/>
      <stop offset="100%" stop-color="#EF4444" stop-opacity="0"/>
    </radialGradient>
    <linearGradient id="primary-grad" x1="0%" y1="0%" x2="100%" y2="0%">
      <stop offset="0%" stop-color="#FF6B00"/>
      <stop offset="100%" stop-color="#EF4444"/>
    </linearGradient>
    <linearGradient id="text-grad" x1="0%" y1="0%" x2="100%" y2="0%">
      <stop offset="0%" stop-color="#FFFFFF"/>
      <stop offset="100%" stop-color="#FDBA74"/>
    </linearGradient>
    <linearGradient id="glass-grad" x1="0%" y1="0%" x2="100%" y2="100%">
      <stop offset="0%" stop-color="rgba(255,255,255,0.08)"/>
      <stop offset="100%" stop-color="rgba(255,255,255,0.02)"/>
    </linearGradient>
    <linearGradient id="pig-skin" x1="0%" y1="0%" x2="100%" y2="100%">
      <stop offset="0%" stop-color="#FFE4E1"/>
      <stop offset="100%" stop-color="#FFB6C1"/>
    </linearGradient>
    <linearGradient id="pig-snout" x1="0%" y1="0%" x2="100%" y2="100%">
      <stop offset="0%" stop-color="#FF9EBB"/>
      <stop offset="100%" stop-color="#E67396"/>
    </linearGradient>
    <linearGradient id="cap-grad" x1="0%" y1="0%" x2="100%" y2="100%">
      <stop offset="0%" stop-color="#FF8C00"/>
      <stop offset="100%" stop-color="#D32F2F"/>
    </linearGradient>
    <filter id="shadow" x="-20%" y="-20%" width="140%" height="140%">
      <feDropShadow dx="0" dy="10" stdDeviation="15" flood-color="#000" flood-opacity="0.5"/>
    </filter>
    <filter id="shadow-sm" x="-20%" y="-20%" width="140%" height="140%">
      <feDropShadow dx="0" dy="4" stdDeviation="6" flood-color="#000" flood-opacity="0.3"/>
    </filter>
    <pattern id="grid" width="40" height="40" patternUnits="userSpaceOnUse">
      <path d="M 40 0 L 0 0 0 40" fill="none" stroke="rgba(255,255,255,0.03)" stroke-width="1"/>
    </pattern>
    
    <g id="pig-mascot">
      <circle cx="0" cy="0" r="160" fill="url(#glow-orange)" opacity="0.6"/>
      <ellipse cx="0" cy="150" rx="130" ry="35" fill="#0B0F19" filter="url(#shadow)"/>
      <ellipse cx="0" cy="140" rx="120" ry="30" fill="url(#glass-grad)" stroke="rgba(255,107,0,0.3)" stroke-width="2"/>
      
      <!-- Body -->
      <path d="M-65,140 C-75,50 -45,10 0,10 C45,10 75,50 65,140 Z" fill="url(#cap-grad)" filter="url(#shadow-sm)"/>
      <path d="M-40,60 L40,60 L50,140 L-50,140 Z" fill="#1E293B"/>
      
      <!-- Left Hand -->
      <g transform="translate(-75, 75) rotate(-30)">
        <circle cx="0" cy="0" r="18" fill="url(#pig-skin)"/>
      </g>
      
      <!-- Head -->
      <rect x="-60" y="-55" width="120" height="100" rx="45" fill="url(#pig-skin)" filter="url(#shadow-sm)"/>
      <path d="M-45,-30 Q-65,-80 -20,-50 Z" fill="url(#pig-skin)"/>
      <path d="M45,-30 Q65,-80 20,-50 Z" fill="url(#pig-skin)"/>
      <ellipse cx="0" cy="-5" rx="28" ry="18" fill="url(#pig-snout)" filter="url(#shadow-sm)"/>
      <ellipse cx="-10" cy="-5" rx="4" ry="7" fill="#A8325D"/>
      <ellipse cx="10" cy="-5" rx="4" ry="7" fill="#A8325D"/>
      <path d="M-8,8 Q0,15 8,8" fill="none" stroke="#A8325D" stroke-width="2" stroke-linecap="round"/>
      
      <!-- Eyes (Tired/Exhausted) -->
      <path d="M-30,-25 Q-20,-25 -15,-25" fill="none" stroke="#0B0F19" stroke-width="3" stroke-linecap="round"/>
      <path d="M30,-25 Q20,-25 15,-25" fill="none" stroke="#0B0F19" stroke-width="3" stroke-linecap="round"/>
      <path d="M-22,-25 Q-22,-18 -22,-20" fill="none" stroke="#0B0F19" stroke-width="2" stroke-linecap="round"/>
      <path d="M22,-25 Q22,-18 22,-20" fill="none" stroke="#0B0F19" stroke-width="2" stroke-linecap="round"/>
      
      <!-- Sweat/Heat drops -->
      <path d="M-45,-10 Q-50,0 -45,10 Q-40,0 -45,-10 Z" fill="#00F2FE" opacity="0.8"/>
      
      <!-- Cap -->
      <path d="M-65,-45 Q0,-85 65,-45 L70,-25 L-70,-25 Z" fill="url(#cap-grad)" filter="url(#shadow-sm)"/>
      <rect x="-75" y="-25" width="150" height="14" rx="7" fill="#FF3E00"/>
      <circle cx="0" cy="-48" r="14" fill="#FFFFFF" filter="url(#shadow-sm)"/>
      <path d="M-6,-48 L6,-48 L0,-56 Z M-6,-45 L6,-45 L0,-37 Z" fill="#FF6B00"/>
      
      <!-- Right hand holding smoking Alternator -->
      <g transform="translate(80, 70) rotate(15)">
        <circle cx="0" cy="0" r="35" fill="#1E293B" stroke="#EF4444" stroke-width="2" filter="url(#shadow-sm)"/>
        <circle cx="0" cy="0" r="20" fill="#0B0F19"/>
        <circle cx="0" cy="0" r="8" fill="#EF4444"/>
        <path d="M-6,-22 L6,-22 L4,-6 L10,6 L-10,6 L-4,-6 Z" fill="#FF6B00" opacity="0.8"/>
        
        <!-- Smoke -->
        <path d="M0,-40 Q10,-55 0,-70 Q-15,-85 0,-100" fill="none" stroke="#94A3B8" stroke-width="3" stroke-linecap="round" opacity="0.7">
          <animate attributeName="opacity" values="0.3;0.8;0.3" dur="2s" repeatCount="indefinite"/>
        </path>
        <path d="M-15,-30 Q-25,-40 -15,-50 Q-5,-60 -15,-70" fill="none" stroke="#94A3B8" stroke-width="2" stroke-linecap="round" opacity="0.5">
          <animate attributeName="opacity" values="0.2;0.6;0.2" dur="1.5s" repeatCount="indefinite"/>
        </path>
        
        <circle cx="28" cy="15" r="18" fill="url(#pig-skin)"/>
      </g>
    </g>
  </defs>
  <style>@import url('https://fonts.googleapis.com/css2?family=Prompt:wght@400;600;800&amp;display=swap');text{font-family:'Prompt',sans-serif;}</style>
  
  <rect width="1200" height="630" fill="url(#bg-grad)"/>
  <rect width="1200" height="630" fill="url(#grid)" opacity="0.5"/>
  <circle cx="1200" cy="0" r="600" fill="url(#glow-orange)"/>
  <circle cx="0" cy="630" r="500" fill="url(#glow-red)"/>
  
  <path d="M 0 500 Q 300 450 600 550 T 1200 500 L 1200 630 L 0 630 Z" fill="url(#glass-grad)"/>
  <path d="M 0 550 Q 400 500 800 600 T 1200 550 L 1200 630 L 0 630 Z" fill="#EF4444" opacity="0.1"/>
  
  <g transform="translate(80, 200)">
    <rect x="0" y="-80" width="220" height="40" rx="20" fill="url(#glass-grad)" stroke="#FF6B00" stroke-width="1.5"/>
    <text x="110" y="-55" font-size="15" font-weight="800" fill="#FF6B00" text-anchor="middle" letter-spacing="2">TECHNICAL GUIDE</text>
    
    <text x="0" y="20" font-size="60" font-weight="800" fill="url(#text-grad)">รถติด เปิดแอร์เย็นฉ่ำ</text>
    <text x="0" y="95" font-size="52" font-weight="800" fill="#FFFFFF">ระวังไดชาร์จน็อค!</text>
    
    <rect x="0" y="140" width="8" height="30" rx="4" fill="url(#primary-grad)"/>
    <text x="24" y="164" font-size="26" font-weight="600" fill="#94A3B8">ทำไม "ไดชาร์จทำงานหนัก" ตอนรถติด?</text>
  </g>
  
  <use href="#pig-mascot" x="900" y="340" transform="scale(1.4) translate(-250, -100)"/>
  <rect x="40" y="580" width="200" height="30" rx="4" fill="url(#primary-grad)"/>
  <text x="140" y="602" font-size="16" font-weight="800" fill="#FFFFFF" text-anchor="middle" letter-spacing="1">FIRSTCARCENTER</text>
</svg>
